<?xml version="1.0" standalone="no"?>
<!DOCTYPE svg PUBLIC "-//W3C//DTD SVG 20010904//EN"
 "http://www.w3.org/TR/2001/REC-SVG-20010904/DTD/svg10.dtd">
<svg version="1.0" xmlns="http://www.w3.org/2000/svg"
 width="538.000000pt" height="550.000000pt" viewBox="0 0 538.000000 550.000000"
 preserveAspectRatio="xMidYMid meet">

<g transform="translate(0.000000,550.000000) scale(0.100000,-0.100000)"
fill="#000000" stroke="none">
<path d="M1160 3938 c102 -197 143 -358 143 -563 0 -203 -32 -337 -143 -595
-122 -284 -144 -452 -80 -623 56 -149 216 -296 385 -353 105 -35 309 -45 425
-20 166 35 347 162 418 293 l31 58 1 -187 0 -188 240 0 240 0 0 793 c0 435 5
846 10 912 29 346 158 518 376 502 78 -6 160 -36 193 -71 24 -26 51 -97 51
-138 0 -105 -57 -272 -200 -588 -166 -365 -234 -545 -260 -688 -16 -88 -16
-227 0 -292 71 -301 396 -454 890 -420 74 5 162 16 194 25 201 53 349 210 412
435 17 60 18 131 22 943 l3 877 -241 0 -240 0 0 -874 c0 -961 0 -955 -61
-1082 -33 -71 -93 -145 -150 -187 -186 -137 -507 -57 -625 155 -26 48 -29 61
-28 143 1 75 5 99 26 145 45 96 121 192 308 386 191 198 274 300 336 410 83
148 120 324 95 446 -38 181 -187 330 -401 402 -154 51 -217 56 -722 56 l-467
0 -3 -787 -3 -788 -28 -56 c-30 -63 -103 -136 -165 -168 -107 -55 -279 -69
-386 -31 -358 124 -442 495 -203 905 22 39 94 147 160 240 175 250 237 396
253 598 l7 87 -436 0 -436 0 59 -112z"/>
</g>
</svg>
